<?xml version="1.0" standalone="no"?>
<!DOCTYPE svg PUBLIC "-//W3C//DTD SVG 20010904//EN"
 "http://www.w3.org/TR/2001/REC-SVG-20010904/DTD/svg10.dtd">
<svg version="1.0" xmlns="http://www.w3.org/2000/svg"
 width="937.000000pt" height="240.000000pt" viewBox="0 0 937.000000 240.000000"
 preserveAspectRatio="xMidYMid meet">
<metadata>
Created by potrace 1.15, written by Peter Selinger 2001-2017
</metadata>
<g transform="translate(0.000000,240.000000) scale(0.100000,-0.100000)"
fill="#277cd6" stroke="none">
<path d="M8854 2049 c-75 -21 -124 -106 -104 -180 14 -53 44 -85 95 -105 38
-14 52 -15 84 -5 110 32 147 167 69 248 -17 18 -39 35 -47 37 -44 12 -69 13
-97 5z"/>
<path d="M1997 1818 c-27 -36 -80 -129 -75 -132 2 -1 21 -9 44 -18 l40 -15 65
80 c103 130 101 117 20 117 -67 0 -71 -1 -94 -32z"/>
<path d="M2640 1760 l0 -90 65 0 65 0 0 90 0 90 -65 0 -65 0 0 -90z"/>
<path d="M3510 1305 c0 -605 -3 -579 67 -632 33 -25 44 -28 112 -28 52 0 88 6
114 19 38 17 38 19 32 59 -4 23 -9 45 -11 48 -2 4 -35 4 -73 1 -60 -4 -71 -2
-90 17 -21 21 -21 24 -21 541 l0 520 -65 0 -65 0 0 -545z"/>
<path d="M4970 1250 l0 -600 75 0 75 0 0 138 0 138 75 72 c40 40 78 72 84 72
5 0 30 -30 56 -67 25 -38 73 -104 105 -148 32 -44 78 -108 101 -142 l43 -63
73 0 c57 0 72 3 67 13 -4 6 -30 44 -59 82 -28 39 -59 81 -68 95 -10 14 -42 59
-72 100 -30 41 -71 99 -91 128 -20 28 -40 55 -45 58 -25 15 5 53 162 212 l171
172 -78 0 -79 -1 -213 -209 c-117 -116 -217 -210 -222 -210 -6 0 -10 145 -10
380 l0 380 -75 0 -75 0 0 -600z"/>
<path d="M190 1230 l0 -580 75 0 75 0 0 435 c0 239 3 435 8 435 4 0 16 -17 27
-37 10 -21 25 -45 32 -54 7 -9 33 -51 57 -95 24 -43 61 -110 83 -149 22 -38
65 -113 94 -165 86 -152 85 -150 134 -150 31 0 45 5 49 17 6 15 53 97 151 263
18 30 50 87 70 125 21 39 41 72 45 75 3 3 24 41 47 85 23 44 48 80 55 80 10 0
13 -82 16 -432 l2 -433 70 0 70 0 0 580 0 580 -70 0 -71 0 -25 -42 c-74 -124
-134 -230 -134 -237 0 -4 -13 -26 -29 -48 -16 -23 -42 -65 -56 -94 -15 -30
-42 -79 -60 -109 -18 -30 -54 -92 -81 -137 -26 -46 -51 -83 -56 -83 -4 0 -22
26 -38 58 -17 31 -58 102 -90 157 -32 55 -73 127 -91 160 -17 33 -39 71 -49
85 -10 14 -32 52 -50 85 -17 33 -51 93 -73 132 l-42 73 -72 0 -73 0 0 -580z"/>
<path d="M8957 1686 c-15 -24 -34 -50 -42 -56 -13 -11 -15 -8 -15 18 0 17 5
34 10 37 22 14 10 35 -20 35 -30 0 -39 -17 -20 -36 7 -7 7 -20 2 -34 -8 -22
-10 -22 -42 25 -31 45 -34 47 -47 30 -20 -29 -16 -60 14 -95 32 -38 22 -65
-23 -65 l-29 0 0 83 0 83 -25 -6 c-37 -9 -44 -19 -101 -150 -51 -117 -53 -124
-65 -265 -7 -79 -10 -148 -8 -152 8 -13 74 -9 74 5 0 6 9 68 19 137 13 89 26
140 44 175 l26 50 2 -265 c0 -146 6 -404 13 -575 l11 -310 51 -3 52 -3 6 138
c4 76 11 197 17 268 5 72 9 166 9 210 0 82 11 118 29 100 8 -8 41 -575 41
-697 0 -15 9 -18 49 -18 59 0 61 4 61 135 0 50 5 167 11 260 5 94 10 299 10
458 0 158 2 287 4 287 3 0 14 -19 26 -42 17 -34 58 -244 59 -305 0 -17 66 -17
72 0 3 6 -1 77 -8 157 -12 151 -10 143 -94 337 -17 39 -29 54 -53 62 -16 6
-32 11 -33 11 -9 0 -3 -97 8 -127 16 -43 1 -87 -30 -91 -26 -4 -29 13 -7 35
23 22 15 48 -15 48 -20 0 -25 -5 -26 -28 -1 -36 -6 -40 -29 -23 -17 12 -17 17
-5 45 7 18 26 39 41 47 23 11 29 21 29 47 0 18 -6 41 -12 50 -12 15 -16 12
-41 -27z"/>
<path d="M1879 1511 c-101 -33 -200 -111 -244 -194 -16 -28 -32 -54 -36 -57
-4 -3 -15 -43 -24 -89 -15 -71 -16 -95 -6 -155 24 -145 116 -272 246 -337 66
-33 72 -34 184 -33 115 0 117 0 183 37 89 50 147 112 194 204 32 65 38 88 42
160 4 82 -12 198 -30 209 -4 3 -20 28 -34 55 -34 68 -106 135 -184 173 -57 27
-77 31 -165 33 -55 1 -112 -1 -126 -6z m210 -120 c65 -24 134 -90 161 -153 39
-92 37 -245 -5 -328 -7 -14 -34 -46 -59 -72 -145 -146 -398 -81 -461 118 -23
75 -17 219 13 284 63 136 217 202 351 151z"/>
<path d="M4235 1507 c-144 -48 -254 -162 -290 -301 -27 -102 -16 -224 27 -323
27 -62 121 -156 199 -198 l74 -40 115 0 c109 0 119 2 182 32 36 18 83 47 103
65 36 31 85 98 85 116 0 8 -109 37 -114 30 -43 -63 -78 -95 -133 -120 -65 -29
-154 -38 -191 -19 -9 5 -32 15 -50 21 -49 19 -110 84 -143 155 -53 115 -83
105 325 105 400 0 371 -7 360 84 -15 124 -58 217 -136 293 -80 79 -150 107
-273 110 -63 2 -115 -2 -140 -10z m243 -112 c29 -13 68 -41 88 -62 45 -47 86
-134 82 -170 l-3 -28 -285 0 -285 0 -3 25 c-5 41 44 137 94 185 79 77 210 98
312 50z"/>
<path d="M6045 1502 c-73 -22 -121 -45 -159 -75 l-29 -24 23 -41 24 -42 30 20
c78 50 141 73 213 78 130 8 190 -23 232 -121 20 -47 27 -119 15 -150 -5 -14
-10 -13 -42 1 -29 13 -68 17 -177 17 -138 0 -141 0 -201 -32 -34 -17 -75 -43
-92 -58 -71 -60 -94 -177 -52 -272 26 -60 42 -78 110 -122 55 -36 56 -36 165
-36 105 0 113 1 175 34 36 18 77 42 92 52 36 26 45 24 53 -10 9 -44 47 -71
100 -71 l45 0 0 59 c0 41 -4 60 -14 64 -11 5 -15 53 -18 249 -6 278 -12 308
-78 387 -65 77 -129 104 -255 108 -74 2 -116 -2 -160 -15z m318 -447 l37 -19
0 -74 c0 -70 -2 -78 -34 -116 -32 -40 -107 -86 -139 -86 -9 0 -19 -4 -22 -10
-3 -5 -33 -10 -66 -10 -138 0 -226 93 -200 212 11 46 34 70 104 107 38 20 54
21 162 18 92 -2 129 -7 158 -22z"/>
<path d="M2640 1048 c0 -444 -1 -464 -20 -496 -32 -52 -76 -74 -137 -68 -28 2
-63 12 -77 21 -24 16 -25 16 -55 -26 -36 -49 -33 -57 40 -89 76 -32 162 -31
233 4 69 34 91 56 122 121 l24 50 0 473 0 472 -65 0 -65 0 0 -462z"/>
<path d="M6800 1080 l0 -430 65 0 65 0 0 270 c0 305 1 308 79 387 42 42 116
83 150 83 10 0 33 3 50 6 30 6 31 8 31 61 l0 55 -62 -4 c-75 -5 -141 -35 -194
-89 -21 -22 -42 -39 -46 -39 -4 0 -8 29 -8 65 l0 65 -65 0 -65 0 0 -430z"/>
<path d="M7350 1460 l0 -50 260 0 c304 0 294 5 200 -105 -33 -38 -82 -97 -109
-130 -28 -33 -90 -107 -138 -165 -49 -58 -104 -125 -123 -150 -19 -25 -49 -61
-67 -80 -28 -29 -33 -42 -33 -82 l0 -48 355 0 355 0 0 55 0 55 -265 0 c-256 0
-265 1 -265 19 0 11 4 23 10 26 9 6 167 194 268 319 26 32 56 68 67 80 11 12
39 48 63 79 24 31 47 57 50 59 4 2 22 22 40 45 24 31 32 52 32 82 l0 41 -350
0 -350 0 0 -50z"/>
<path d="M8230 740 l0 -90 60 0 60 0 0 90 0 90 -60 0 -60 0 0 -90z"/>
</g>
</svg>
